<mxfile host="Electron" agent="Mozilla/5.0 (Windows NT 10.0; Win64; x64) AppleWebKit/537.36 (KHTML, like Gecko) draw.io/28.1.2 Chrome/138.0.7204.243 Electron/37.4.0 Safari/537.36" version="28.1.2">
  <diagram name="Seite-1" id="eBzdQh01MeemGXFFqp1h">
    <mxGraphModel dx="1426" dy="841" grid="1" gridSize="10" guides="1" tooltips="1" connect="1" arrows="1" fold="1" page="1" pageScale="1" pageWidth="827" pageHeight="1169" math="0" shadow="0">
      <root>
        <mxCell id="0" />
        <mxCell id="1" parent="0" />
        <mxCell id="ESykT-HEd624DX2kt4N7-1" value="Kunden Bestellung" style="shape=process;whiteSpace=wrap;html=1;backgroundOutline=1;fillColor=#99CCFF;" vertex="1" parent="1">
          <mxGeometry x="110" y="140" width="120" height="60" as="geometry" />
        </mxCell>
        <mxCell id="ESykT-HEd624DX2kt4N7-12" value="" style="edgeStyle=orthogonalEdgeStyle;rounded=0;orthogonalLoop=1;jettySize=auto;html=1;" edge="1" parent="1" source="ESykT-HEd624DX2kt4N7-4" target="ESykT-HEd624DX2kt4N7-5">
          <mxGeometry relative="1" as="geometry" />
        </mxCell>
        <mxCell id="ESykT-HEd624DX2kt4N7-14" value="" style="edgeStyle=orthogonalEdgeStyle;rounded=0;orthogonalLoop=1;jettySize=auto;html=1;" edge="1" parent="1" source="ESykT-HEd624DX2kt4N7-4" target="ESykT-HEd624DX2kt4N7-13">
          <mxGeometry relative="1" as="geometry" />
        </mxCell>
        <mxCell id="ESykT-HEd624DX2kt4N7-4" value="Kellner bring Essen" style="shape=process;whiteSpace=wrap;html=1;backgroundOutline=1;fillColor=#f8cecc;strokeColor=#b85450;" vertex="1" parent="1">
          <mxGeometry x="120" y="250" width="120" height="60" as="geometry" />
        </mxCell>
        <mxCell id="ESykT-HEd624DX2kt4N7-5" value="end" style="ellipse;whiteSpace=wrap;html=1;aspect=fixed;" vertex="1" parent="1">
          <mxGeometry x="140" y="350" width="80" height="80" as="geometry" />
        </mxCell>
        <mxCell id="ESykT-HEd624DX2kt4N7-8" value="" style="edgeStyle=orthogonalEdgeStyle;rounded=0;orthogonalLoop=1;jettySize=auto;html=1;" edge="1" parent="1" source="ESykT-HEd624DX2kt4N7-6" target="ESykT-HEd624DX2kt4N7-1">
          <mxGeometry relative="1" as="geometry" />
        </mxCell>
        <mxCell id="ESykT-HEd624DX2kt4N7-6" value="Start" style="ellipse;whiteSpace=wrap;html=1;aspect=fixed;" vertex="1" parent="1">
          <mxGeometry x="130" y="30" width="80" height="80" as="geometry" />
        </mxCell>
        <mxCell id="ESykT-HEd624DX2kt4N7-13" value="return Essen" style="shape=document;whiteSpace=wrap;html=1;boundedLbl=1;fillColor=#f8cecc;strokeColor=#b85450;" vertex="1" parent="1">
          <mxGeometry x="310" y="240" width="120" height="80" as="geometry" />
        </mxCell>
        <mxCell id="ESykT-HEd624DX2kt4N7-15" value="" style="edgeStyle=orthogonalEdgeStyle;rounded=0;orthogonalLoop=1;jettySize=auto;html=1;" edge="1" parent="1" source="ESykT-HEd624DX2kt4N7-16" target="ESykT-HEd624DX2kt4N7-18">
          <mxGeometry relative="1" as="geometry" />
        </mxCell>
        <mxCell id="ESykT-HEd624DX2kt4N7-16" value="Kunden Bestellung" style="shape=process;whiteSpace=wrap;html=1;backgroundOutline=1;fillColor=#99CCFF;" vertex="1" parent="1">
          <mxGeometry x="590" y="210" width="120" height="60" as="geometry" />
        </mxCell>
        <mxCell id="ESykT-HEd624DX2kt4N7-17" value="" style="edgeStyle=orthogonalEdgeStyle;rounded=0;orthogonalLoop=1;jettySize=auto;html=1;" edge="1" parent="1" source="ESykT-HEd624DX2kt4N7-18" target="ESykT-HEd624DX2kt4N7-20">
          <mxGeometry relative="1" as="geometry" />
        </mxCell>
        <mxCell id="ESykT-HEd624DX2kt4N7-18" value="Kelner nimmt&lt;div&gt;Bestellung&lt;/div&gt;" style="shape=process;whiteSpace=wrap;html=1;backgroundOutline=1;fillColor=#f8cecc;strokeColor=#b85450;" vertex="1" parent="1">
          <mxGeometry x="590" y="320" width="120" height="60" as="geometry" />
        </mxCell>
        <mxCell id="ESykT-HEd624DX2kt4N7-19" value="" style="edgeStyle=orthogonalEdgeStyle;rounded=0;orthogonalLoop=1;jettySize=auto;html=1;" edge="1" parent="1" source="ESykT-HEd624DX2kt4N7-20" target="ESykT-HEd624DX2kt4N7-23">
          <mxGeometry relative="1" as="geometry" />
        </mxCell>
        <mxCell id="ESykT-HEd624DX2kt4N7-20" value="Kellner zur KÃ¼che&amp;nbsp;" style="shape=process;whiteSpace=wrap;html=1;backgroundOutline=1;fillColor=#d5e8d4;strokeColor=#82b366;" vertex="1" parent="1">
          <mxGeometry x="590" y="410" width="120" height="60" as="geometry" />
        </mxCell>
        <mxCell id="ESykT-HEd624DX2kt4N7-21" value="" style="edgeStyle=orthogonalEdgeStyle;rounded=0;orthogonalLoop=1;jettySize=auto;html=1;" edge="1" parent="1" source="ESykT-HEd624DX2kt4N7-23" target="ESykT-HEd624DX2kt4N7-24">
          <mxGeometry relative="1" as="geometry" />
        </mxCell>
        <mxCell id="ESykT-HEd624DX2kt4N7-22" value="" style="edgeStyle=orthogonalEdgeStyle;rounded=0;orthogonalLoop=1;jettySize=auto;html=1;" edge="1" parent="1" source="ESykT-HEd624DX2kt4N7-23" target="ESykT-HEd624DX2kt4N7-27">
          <mxGeometry relative="1" as="geometry" />
        </mxCell>
        <mxCell id="ESykT-HEd624DX2kt4N7-23" value="Kellner bring Essen" style="shape=process;whiteSpace=wrap;html=1;backgroundOutline=1;fillColor=#f8cecc;strokeColor=#b85450;" vertex="1" parent="1">
          <mxGeometry x="590" y="510" width="120" height="60" as="geometry" />
        </mxCell>
        <mxCell id="ESykT-HEd624DX2kt4N7-24" value="end" style="ellipse;whiteSpace=wrap;html=1;aspect=fixed;" vertex="1" parent="1">
          <mxGeometry x="610" y="630" width="80" height="80" as="geometry" />
        </mxCell>
        <mxCell id="ESykT-HEd624DX2kt4N7-25" value="" style="edgeStyle=orthogonalEdgeStyle;rounded=0;orthogonalLoop=1;jettySize=auto;html=1;" edge="1" parent="1" source="ESykT-HEd624DX2kt4N7-26" target="ESykT-HEd624DX2kt4N7-16">
          <mxGeometry relative="1" as="geometry" />
        </mxCell>
        <mxCell id="ESykT-HEd624DX2kt4N7-26" value="Start" style="ellipse;whiteSpace=wrap;html=1;aspect=fixed;" vertex="1" parent="1">
          <mxGeometry x="610" y="100" width="80" height="80" as="geometry" />
        </mxCell>
        <mxCell id="ESykT-HEd624DX2kt4N7-27" value="return Essen" style="shape=document;whiteSpace=wrap;html=1;boundedLbl=1;fillColor=#f8cecc;strokeColor=#b85450;" vertex="1" parent="1">
          <mxGeometry x="790" y="500" width="120" height="80" as="geometry" />
        </mxCell>
      </root>
    </mxGraphModel>
  </diagram>
</mxfile>
